# xmcd CD database file
#
# Track frame offsets:
#	150
#	15877
#	31520
#
# Disc length: 628 seconds
#
# Revision: 3
# Processed by: cddbd v1.5.2PL0 Copyright (c) Steve Scherf et al.
# Submitted via: CDex 1,2,0,0
#
DISCID=0c027203
DTITLE=Def Squad - Full Cooperation [CDS)
DYEAR=1998
DGENRE=Hip-Hop
TTITLE0=Full Cooperation (Radio Edit)
TTITLE1=Full Cooperation (LP Version)
TTITLE2=Full Cooperation (TV Version)
EXTD=YEAR: 1998
EXTT0=
EXTT1=
EXTT2=
PLAYORDER=
